<mxfile host="app.diagrams.net" modified="2024-03-20T02:07:36.371Z" agent="Mozilla/5.0 (X11; Linux x86_64) AppleWebKit/537.36 (KHTML, like Gecko) Chrome/120.0.0.0 Safari/537.36" etag="dl60lwPGzqXODxy1qzf4" version="24.0.7" type="github">
  <diagram name="Page-1" id="75iP4moHz4gSnm8W7jYa">
    <mxGraphModel dx="1434" dy="786" grid="1" gridSize="10" guides="1" tooltips="1" connect="1" arrows="1" fold="1" page="1" pageScale="1" pageWidth="850" pageHeight="1100" math="0" shadow="0">
      <root>
        <mxCell id="0" />
        <mxCell id="1" parent="0" />
        <mxCell id="Fdf8ruKNhAeZIdXmLDlQ-97" value="" style="rounded=0;whiteSpace=wrap;html=1;" vertex="1" parent="1">
          <mxGeometry x="290" y="5" width="530" height="300" as="geometry" />
        </mxCell>
        <mxCell id="Fdf8ruKNhAeZIdXmLDlQ-5" style="edgeStyle=orthogonalEdgeStyle;rounded=0;orthogonalLoop=1;jettySize=auto;html=1;" edge="1" parent="1" source="Fdf8ruKNhAeZIdXmLDlQ-1" target="Fdf8ruKNhAeZIdXmLDlQ-3">
          <mxGeometry relative="1" as="geometry" />
        </mxCell>
        <mxCell id="Fdf8ruKNhAeZIdXmLDlQ-1" value="" style="ellipse;shape=cloud;whiteSpace=wrap;html=1;" vertex="1" parent="1">
          <mxGeometry width="120" height="80" as="geometry" />
        </mxCell>
        <mxCell id="Fdf8ruKNhAeZIdXmLDlQ-2" value="Internet" style="text;html=1;align=center;verticalAlign=middle;whiteSpace=wrap;rounded=0;" vertex="1" parent="1">
          <mxGeometry x="30" y="25" width="60" height="30" as="geometry" />
        </mxCell>
        <mxCell id="Fdf8ruKNhAeZIdXmLDlQ-11" style="edgeStyle=orthogonalEdgeStyle;rounded=0;orthogonalLoop=1;jettySize=auto;html=1;entryX=0;entryY=0.5;entryDx=0;entryDy=0;" edge="1" parent="1" source="Fdf8ruKNhAeZIdXmLDlQ-3" target="Fdf8ruKNhAeZIdXmLDlQ-8">
          <mxGeometry relative="1" as="geometry">
            <Array as="points">
              <mxPoint x="275" y="120" />
              <mxPoint x="275" y="240" />
            </Array>
          </mxGeometry>
        </mxCell>
        <mxCell id="Fdf8ruKNhAeZIdXmLDlQ-24" style="edgeStyle=orthogonalEdgeStyle;rounded=0;orthogonalLoop=1;jettySize=auto;html=1;entryX=0;entryY=0.5;entryDx=0;entryDy=0;" edge="1" parent="1" source="Fdf8ruKNhAeZIdXmLDlQ-3" target="Fdf8ruKNhAeZIdXmLDlQ-23">
          <mxGeometry relative="1" as="geometry" />
        </mxCell>
        <mxCell id="Fdf8ruKNhAeZIdXmLDlQ-3" value="" style="image;html=1;image=img/lib/clip_art/networking/Firewall_128x128.png" vertex="1" parent="1">
          <mxGeometry x="160" y="80" width="80" height="80" as="geometry" />
        </mxCell>
        <mxCell id="Fdf8ruKNhAeZIdXmLDlQ-27" style="edgeStyle=orthogonalEdgeStyle;rounded=0;orthogonalLoop=1;jettySize=auto;html=1;" edge="1" parent="1" source="Fdf8ruKNhAeZIdXmLDlQ-6" target="Fdf8ruKNhAeZIdXmLDlQ-20">
          <mxGeometry relative="1" as="geometry" />
        </mxCell>
        <mxCell id="Fdf8ruKNhAeZIdXmLDlQ-6" value="" style="image;html=1;image=img/lib/clip_art/computers/Server_Rack_128x128.png" vertex="1" parent="1">
          <mxGeometry x="500" y="80" width="80" height="80" as="geometry" />
        </mxCell>
        <mxCell id="Fdf8ruKNhAeZIdXmLDlQ-19" style="edgeStyle=orthogonalEdgeStyle;rounded=0;orthogonalLoop=1;jettySize=auto;html=1;" edge="1" parent="1" source="Fdf8ruKNhAeZIdXmLDlQ-8" target="Fdf8ruKNhAeZIdXmLDlQ-18">
          <mxGeometry relative="1" as="geometry" />
        </mxCell>
        <mxCell id="Fdf8ruKNhAeZIdXmLDlQ-8" value="" style="image;html=1;image=img/lib/clip_art/computers/Server_128x128.png" vertex="1" parent="1">
          <mxGeometry x="310" y="200" width="80" height="80" as="geometry" />
        </mxCell>
        <mxCell id="Fdf8ruKNhAeZIdXmLDlQ-10" style="edgeStyle=orthogonalEdgeStyle;rounded=0;orthogonalLoop=1;jettySize=auto;html=1;" edge="1" parent="1" source="Fdf8ruKNhAeZIdXmLDlQ-9" target="Fdf8ruKNhAeZIdXmLDlQ-3">
          <mxGeometry relative="1" as="geometry" />
        </mxCell>
        <mxCell id="Fdf8ruKNhAeZIdXmLDlQ-9" value="" style="sketch=0;points=[[0.015,0.015,0],[0.985,0.015,0],[0.985,0.985,0],[0.015,0.985,0],[0.25,0,0],[0.5,0,0],[0.75,0,0],[1,0.25,0],[1,0.5,0],[1,0.75,0],[0.75,1,0],[0.5,1,0],[0.25,1,0],[0,0.75,0],[0,0.5,0],[0,0.25,0]];verticalLabelPosition=bottom;html=1;verticalAlign=top;aspect=fixed;align=center;pointerEvents=1;shape=mxgraph.cisco19.rect;prIcon=ips_ids;fillColor=#FAFAFA;strokeColor=#005073;" vertex="1" parent="1">
          <mxGeometry x="168" y="240" width="64" height="50" as="geometry" />
        </mxCell>
        <mxCell id="Fdf8ruKNhAeZIdXmLDlQ-30" style="edgeStyle=orthogonalEdgeStyle;rounded=0;orthogonalLoop=1;jettySize=auto;html=1;" edge="1" parent="1" source="Fdf8ruKNhAeZIdXmLDlQ-12" target="Fdf8ruKNhAeZIdXmLDlQ-22">
          <mxGeometry relative="1" as="geometry" />
        </mxCell>
        <mxCell id="Fdf8ruKNhAeZIdXmLDlQ-12" value="" style="verticalLabelPosition=bottom;sketch=0;html=1;fillColor=#282828;strokeColor=none;verticalAlign=top;pointerEvents=1;align=center;shape=mxgraph.cisco_safe.security_icons.ids;" vertex="1" parent="1">
          <mxGeometry x="417" y="25" width="46" height="35.5" as="geometry" />
        </mxCell>
        <mxCell id="Fdf8ruKNhAeZIdXmLDlQ-18" value="" style="image;points=[];aspect=fixed;html=1;align=center;shadow=0;dashed=0;image=img/lib/allied_telesis/computer_and_terminals/Personal_Computer.svg;" vertex="1" parent="1">
          <mxGeometry x="460" y="210" width="45.6" height="61.800000000000004" as="geometry" />
        </mxCell>
        <mxCell id="Fdf8ruKNhAeZIdXmLDlQ-28" style="edgeStyle=orthogonalEdgeStyle;rounded=0;orthogonalLoop=1;jettySize=auto;html=1;" edge="1" parent="1" source="Fdf8ruKNhAeZIdXmLDlQ-20" target="Fdf8ruKNhAeZIdXmLDlQ-21">
          <mxGeometry relative="1" as="geometry" />
        </mxCell>
        <mxCell id="Fdf8ruKNhAeZIdXmLDlQ-20" value="" style="image;html=1;image=img/lib/clip_art/computers/Server_Rack_128x128.png" vertex="1" parent="1">
          <mxGeometry x="600" y="80" width="80" height="80" as="geometry" />
        </mxCell>
        <mxCell id="Fdf8ruKNhAeZIdXmLDlQ-21" value="" style="image;html=1;image=img/lib/clip_art/computers/Server_Rack_128x128.png" vertex="1" parent="1">
          <mxGeometry x="700" y="80" width="80" height="80" as="geometry" />
        </mxCell>
        <mxCell id="Fdf8ruKNhAeZIdXmLDlQ-26" style="edgeStyle=orthogonalEdgeStyle;rounded=0;orthogonalLoop=1;jettySize=auto;html=1;" edge="1" parent="1" source="Fdf8ruKNhAeZIdXmLDlQ-22" target="Fdf8ruKNhAeZIdXmLDlQ-6">
          <mxGeometry relative="1" as="geometry" />
        </mxCell>
        <mxCell id="Fdf8ruKNhAeZIdXmLDlQ-22" value="" style="image;html=1;image=img/lib/clip_art/networking/Switch_128x128.png" vertex="1" parent="1">
          <mxGeometry x="400" y="80" width="80" height="80" as="geometry" />
        </mxCell>
        <mxCell id="Fdf8ruKNhAeZIdXmLDlQ-25" style="edgeStyle=orthogonalEdgeStyle;rounded=0;orthogonalLoop=1;jettySize=auto;html=1;" edge="1" parent="1" source="Fdf8ruKNhAeZIdXmLDlQ-23" target="Fdf8ruKNhAeZIdXmLDlQ-22">
          <mxGeometry relative="1" as="geometry" />
        </mxCell>
        <mxCell id="Fdf8ruKNhAeZIdXmLDlQ-23" value="" style="image;html=1;image=img/lib/clip_art/networking/Firewall-page1_128x128.png" vertex="1" parent="1">
          <mxGeometry x="300" y="80" width="80" height="80" as="geometry" />
        </mxCell>
        <mxCell id="Fdf8ruKNhAeZIdXmLDlQ-31" value="Honeypot" style="text;html=1;align=center;verticalAlign=middle;whiteSpace=wrap;rounded=0;" vertex="1" parent="1">
          <mxGeometry x="320" y="260" width="60" height="30" as="geometry" />
        </mxCell>
        <mxCell id="Fdf8ruKNhAeZIdXmLDlQ-32" value="PC" style="text;html=1;align=center;verticalAlign=middle;whiteSpace=wrap;rounded=0;" vertex="1" parent="1">
          <mxGeometry x="452.8" y="271.8" width="60" height="30" as="geometry" />
        </mxCell>
        <mxCell id="Fdf8ruKNhAeZIdXmLDlQ-33" value="Switch" style="text;html=1;align=center;verticalAlign=middle;whiteSpace=wrap;rounded=0;" vertex="1" parent="1">
          <mxGeometry x="410" y="140" width="60" height="30" as="geometry" />
        </mxCell>
        <mxCell id="Fdf8ruKNhAeZIdXmLDlQ-35" value="IDS" style="text;html=1;align=center;verticalAlign=middle;whiteSpace=wrap;rounded=0;" vertex="1" parent="1">
          <mxGeometry x="410" width="60" height="30" as="geometry" />
        </mxCell>
        <mxCell id="Fdf8ruKNhAeZIdXmLDlQ-36" value="IPS" style="text;html=1;align=center;verticalAlign=middle;whiteSpace=wrap;rounded=0;" vertex="1" parent="1">
          <mxGeometry x="120" y="250" width="60" height="30" as="geometry" />
        </mxCell>
        <mxCell id="Fdf8ruKNhAeZIdXmLDlQ-37" value="Firewall" style="text;html=1;align=center;verticalAlign=middle;whiteSpace=wrap;rounded=0;" vertex="1" parent="1">
          <mxGeometry x="168" y="55" width="60" height="30" as="geometry" />
        </mxCell>
        <mxCell id="Fdf8ruKNhAeZIdXmLDlQ-38" value="Firewall" style="text;html=1;align=center;verticalAlign=middle;whiteSpace=wrap;rounded=0;" vertex="1" parent="1">
          <mxGeometry x="310" y="50" width="60" height="30" as="geometry" />
        </mxCell>
        <mxCell id="Fdf8ruKNhAeZIdXmLDlQ-39" value="Mail Server" style="text;html=1;align=center;verticalAlign=middle;whiteSpace=wrap;rounded=0;" vertex="1" parent="1">
          <mxGeometry x="510" y="160" width="60" height="30" as="geometry" />
        </mxCell>
        <mxCell id="Fdf8ruKNhAeZIdXmLDlQ-41" value="Public Server" style="text;html=1;align=center;verticalAlign=middle;whiteSpace=wrap;rounded=0;" vertex="1" parent="1">
          <mxGeometry x="610" y="160" width="60" height="30" as="geometry" />
        </mxCell>
        <mxCell id="Fdf8ruKNhAeZIdXmLDlQ-42" value="Redundancy Server" style="text;html=1;align=center;verticalAlign=middle;whiteSpace=wrap;rounded=0;" vertex="1" parent="1">
          <mxGeometry x="710" y="160" width="60" height="30" as="geometry" />
        </mxCell>
        <mxCell id="Fdf8ruKNhAeZIdXmLDlQ-43" value="" style="image;html=1;image=img/lib/clip_art/networking/Firewall-page1_128x128.png" vertex="1" parent="1">
          <mxGeometry x="160" y="360" width="80" height="80" as="geometry" />
        </mxCell>
        <mxCell id="Fdf8ruKNhAeZIdXmLDlQ-44" style="edgeStyle=orthogonalEdgeStyle;rounded=0;orthogonalLoop=1;jettySize=auto;html=1;entryX=0.5;entryY=1;entryDx=0;entryDy=0;entryPerimeter=0;" edge="1" parent="1" source="Fdf8ruKNhAeZIdXmLDlQ-43" target="Fdf8ruKNhAeZIdXmLDlQ-9">
          <mxGeometry relative="1" as="geometry" />
        </mxCell>
        <mxCell id="Fdf8ruKNhAeZIdXmLDlQ-45" value="Firewall" style="text;html=1;align=center;verticalAlign=middle;whiteSpace=wrap;rounded=0;" vertex="1" parent="1">
          <mxGeometry x="108" y="385" width="60" height="30" as="geometry" />
        </mxCell>
        <mxCell id="Fdf8ruKNhAeZIdXmLDlQ-47" style="edgeStyle=orthogonalEdgeStyle;rounded=0;orthogonalLoop=1;jettySize=auto;html=1;entryX=0.475;entryY=0.875;entryDx=0;entryDy=0;entryPerimeter=0;" edge="1" parent="1" target="Fdf8ruKNhAeZIdXmLDlQ-43">
          <mxGeometry relative="1" as="geometry">
            <mxPoint x="198" y="490" as="sourcePoint" />
          </mxGeometry>
        </mxCell>
        <mxCell id="Fdf8ruKNhAeZIdXmLDlQ-48" value="Router" style="text;html=1;align=center;verticalAlign=middle;whiteSpace=wrap;rounded=0;" vertex="1" parent="1">
          <mxGeometry x="100" y="510" width="60" height="30" as="geometry" />
        </mxCell>
        <mxCell id="Fdf8ruKNhAeZIdXmLDlQ-54" style="edgeStyle=orthogonalEdgeStyle;rounded=0;orthogonalLoop=1;jettySize=auto;html=1;" edge="1" parent="1" source="Fdf8ruKNhAeZIdXmLDlQ-49" target="Fdf8ruKNhAeZIdXmLDlQ-50">
          <mxGeometry relative="1" as="geometry" />
        </mxCell>
        <mxCell id="Fdf8ruKNhAeZIdXmLDlQ-49" value="" style="image;html=1;image=img/lib/clip_art/networking/Router_128x128.png" vertex="1" parent="1">
          <mxGeometry x="160" y="490" width="80" height="80" as="geometry" />
        </mxCell>
        <mxCell id="Fdf8ruKNhAeZIdXmLDlQ-56" style="edgeStyle=orthogonalEdgeStyle;rounded=0;orthogonalLoop=1;jettySize=auto;html=1;entryX=0;entryY=0.5;entryDx=0;entryDy=0;" edge="1" parent="1" source="Fdf8ruKNhAeZIdXmLDlQ-50" target="Fdf8ruKNhAeZIdXmLDlQ-51">
          <mxGeometry relative="1" as="geometry" />
        </mxCell>
        <mxCell id="Fdf8ruKNhAeZIdXmLDlQ-67" style="edgeStyle=orthogonalEdgeStyle;rounded=0;orthogonalLoop=1;jettySize=auto;html=1;" edge="1" parent="1" source="Fdf8ruKNhAeZIdXmLDlQ-50" target="Fdf8ruKNhAeZIdXmLDlQ-63">
          <mxGeometry relative="1" as="geometry" />
        </mxCell>
        <mxCell id="Fdf8ruKNhAeZIdXmLDlQ-50" value="" style="image;html=1;image=img/lib/clip_art/networking/Switch_128x128.png" vertex="1" parent="1">
          <mxGeometry x="280" y="490" width="80" height="80" as="geometry" />
        </mxCell>
        <mxCell id="Fdf8ruKNhAeZIdXmLDlQ-57" style="edgeStyle=orthogonalEdgeStyle;rounded=0;orthogonalLoop=1;jettySize=auto;html=1;" edge="1" parent="1" source="Fdf8ruKNhAeZIdXmLDlQ-51" target="Fdf8ruKNhAeZIdXmLDlQ-52">
          <mxGeometry relative="1" as="geometry" />
        </mxCell>
        <mxCell id="Fdf8ruKNhAeZIdXmLDlQ-68" style="edgeStyle=orthogonalEdgeStyle;rounded=0;orthogonalLoop=1;jettySize=auto;html=1;" edge="1" parent="1" source="Fdf8ruKNhAeZIdXmLDlQ-51" target="Fdf8ruKNhAeZIdXmLDlQ-64">
          <mxGeometry relative="1" as="geometry" />
        </mxCell>
        <mxCell id="Fdf8ruKNhAeZIdXmLDlQ-51" value="" style="image;html=1;image=img/lib/clip_art/networking/Switch_128x128.png" vertex="1" parent="1">
          <mxGeometry x="400" y="490" width="80" height="80" as="geometry" />
        </mxCell>
        <mxCell id="Fdf8ruKNhAeZIdXmLDlQ-58" style="edgeStyle=orthogonalEdgeStyle;rounded=0;orthogonalLoop=1;jettySize=auto;html=1;" edge="1" parent="1" source="Fdf8ruKNhAeZIdXmLDlQ-52" target="Fdf8ruKNhAeZIdXmLDlQ-53">
          <mxGeometry relative="1" as="geometry" />
        </mxCell>
        <mxCell id="Fdf8ruKNhAeZIdXmLDlQ-69" style="edgeStyle=orthogonalEdgeStyle;rounded=0;orthogonalLoop=1;jettySize=auto;html=1;" edge="1" parent="1" source="Fdf8ruKNhAeZIdXmLDlQ-52" target="Fdf8ruKNhAeZIdXmLDlQ-65">
          <mxGeometry relative="1" as="geometry" />
        </mxCell>
        <mxCell id="Fdf8ruKNhAeZIdXmLDlQ-52" value="" style="image;html=1;image=img/lib/clip_art/networking/Switch_128x128.png" vertex="1" parent="1">
          <mxGeometry x="520" y="490" width="80" height="80" as="geometry" />
        </mxCell>
        <mxCell id="Fdf8ruKNhAeZIdXmLDlQ-70" style="edgeStyle=orthogonalEdgeStyle;rounded=0;orthogonalLoop=1;jettySize=auto;html=1;entryX=0.5;entryY=0;entryDx=0;entryDy=0;" edge="1" parent="1" source="Fdf8ruKNhAeZIdXmLDlQ-53" target="Fdf8ruKNhAeZIdXmLDlQ-66">
          <mxGeometry relative="1" as="geometry" />
        </mxCell>
        <mxCell id="Fdf8ruKNhAeZIdXmLDlQ-53" value="" style="image;html=1;image=img/lib/clip_art/networking/Switch_128x128.png" vertex="1" parent="1">
          <mxGeometry x="640" y="490" width="80" height="80" as="geometry" />
        </mxCell>
        <mxCell id="Fdf8ruKNhAeZIdXmLDlQ-59" value="HR Switch" style="text;html=1;align=center;verticalAlign=middle;whiteSpace=wrap;rounded=0;" vertex="1" parent="1">
          <mxGeometry x="290" y="480" width="60" height="30" as="geometry" />
        </mxCell>
        <mxCell id="Fdf8ruKNhAeZIdXmLDlQ-60" value="Customer Service Switch" style="text;html=1;align=center;verticalAlign=middle;whiteSpace=wrap;rounded=0;" vertex="1" parent="1">
          <mxGeometry x="410" y="470" width="60" height="30" as="geometry" />
        </mxCell>
        <mxCell id="Fdf8ruKNhAeZIdXmLDlQ-61" value="Salespeople Switch" style="text;html=1;align=center;verticalAlign=middle;whiteSpace=wrap;rounded=0;" vertex="1" parent="1">
          <mxGeometry x="530" y="470" width="60" height="30" as="geometry" />
        </mxCell>
        <mxCell id="Fdf8ruKNhAeZIdXmLDlQ-62" value="Admins Switch" style="text;html=1;align=center;verticalAlign=middle;whiteSpace=wrap;rounded=0;" vertex="1" parent="1">
          <mxGeometry x="650" y="470" width="60" height="30" as="geometry" />
        </mxCell>
        <mxCell id="Fdf8ruKNhAeZIdXmLDlQ-63" value="" style="image;html=1;image=img/lib/clip_art/networking/Firewall_128x128.png" vertex="1" parent="1">
          <mxGeometry x="280" y="590" width="80" height="80" as="geometry" />
        </mxCell>
        <mxCell id="Fdf8ruKNhAeZIdXmLDlQ-64" value="" style="image;html=1;image=img/lib/clip_art/networking/Firewall_128x128.png" vertex="1" parent="1">
          <mxGeometry x="400" y="590" width="80" height="80" as="geometry" />
        </mxCell>
        <mxCell id="Fdf8ruKNhAeZIdXmLDlQ-65" value="" style="image;html=1;image=img/lib/clip_art/networking/Firewall_128x128.png" vertex="1" parent="1">
          <mxGeometry x="520" y="590" width="80" height="80" as="geometry" />
        </mxCell>
        <mxCell id="Fdf8ruKNhAeZIdXmLDlQ-66" value="" style="image;html=1;image=img/lib/clip_art/networking/Firewall_128x128.png" vertex="1" parent="1">
          <mxGeometry x="640" y="590" width="80" height="80" as="geometry" />
        </mxCell>
        <mxCell id="Fdf8ruKNhAeZIdXmLDlQ-79" style="edgeStyle=orthogonalEdgeStyle;rounded=0;orthogonalLoop=1;jettySize=auto;html=1;" edge="1" parent="1" source="Fdf8ruKNhAeZIdXmLDlQ-71" target="Fdf8ruKNhAeZIdXmLDlQ-63">
          <mxGeometry relative="1" as="geometry" />
        </mxCell>
        <mxCell id="Fdf8ruKNhAeZIdXmLDlQ-71" value="" style="image;points=[];aspect=fixed;html=1;align=center;shadow=0;dashed=0;image=img/lib/allied_telesis/computer_and_terminals/Personal_Computer.svg;" vertex="1" parent="1">
          <mxGeometry x="107.19999999999999" y="638.2" width="45.6" height="61.800000000000004" as="geometry" />
        </mxCell>
        <mxCell id="Fdf8ruKNhAeZIdXmLDlQ-81" style="edgeStyle=orthogonalEdgeStyle;rounded=0;orthogonalLoop=1;jettySize=auto;html=1;entryX=0;entryY=1;entryDx=0;entryDy=0;" edge="1" parent="1" source="Fdf8ruKNhAeZIdXmLDlQ-72" target="Fdf8ruKNhAeZIdXmLDlQ-63">
          <mxGeometry relative="1" as="geometry" />
        </mxCell>
        <mxCell id="Fdf8ruKNhAeZIdXmLDlQ-72" value="" style="image;points=[];aspect=fixed;html=1;align=center;shadow=0;dashed=0;image=img/lib/allied_telesis/computer_and_terminals/Personal_Computer.svg;" vertex="1" parent="1">
          <mxGeometry x="219.99999999999997" y="761.8" width="45.6" height="61.800000000000004" as="geometry" />
        </mxCell>
        <mxCell id="Fdf8ruKNhAeZIdXmLDlQ-80" style="edgeStyle=orthogonalEdgeStyle;rounded=0;orthogonalLoop=1;jettySize=auto;html=1;entryX=0;entryY=0.75;entryDx=0;entryDy=0;" edge="1" parent="1" source="Fdf8ruKNhAeZIdXmLDlQ-73" target="Fdf8ruKNhAeZIdXmLDlQ-63">
          <mxGeometry relative="1" as="geometry" />
        </mxCell>
        <mxCell id="Fdf8ruKNhAeZIdXmLDlQ-73" value="" style="image;points=[];aspect=fixed;html=1;align=center;shadow=0;dashed=0;image=img/lib/allied_telesis/computer_and_terminals/Personal_Computer.svg;" vertex="1" parent="1">
          <mxGeometry x="160" y="700" width="45.6" height="61.800000000000004" as="geometry" />
        </mxCell>
        <mxCell id="Fdf8ruKNhAeZIdXmLDlQ-82" value="PC" style="text;html=1;align=center;verticalAlign=middle;whiteSpace=wrap;rounded=0;" vertex="1" parent="1">
          <mxGeometry x="90" y="700" width="60" height="30" as="geometry" />
        </mxCell>
        <mxCell id="Fdf8ruKNhAeZIdXmLDlQ-83" value="PC" style="text;html=1;align=center;verticalAlign=middle;whiteSpace=wrap;rounded=0;" vertex="1" parent="1">
          <mxGeometry x="146" y="762" width="60" height="30" as="geometry" />
        </mxCell>
        <mxCell id="Fdf8ruKNhAeZIdXmLDlQ-84" value="PC" style="text;html=1;align=center;verticalAlign=middle;whiteSpace=wrap;rounded=0;" vertex="1" parent="1">
          <mxGeometry x="213" y="824" width="60" height="30" as="geometry" />
        </mxCell>
        <mxCell id="Fdf8ruKNhAeZIdXmLDlQ-87" style="edgeStyle=orthogonalEdgeStyle;rounded=0;orthogonalLoop=1;jettySize=auto;html=1;entryX=0;entryY=0.25;entryDx=0;entryDy=0;" edge="1" parent="1" source="Fdf8ruKNhAeZIdXmLDlQ-85" target="Fdf8ruKNhAeZIdXmLDlQ-64">
          <mxGeometry relative="1" as="geometry" />
        </mxCell>
        <mxCell id="Fdf8ruKNhAeZIdXmLDlQ-111" style="edgeStyle=orthogonalEdgeStyle;rounded=0;orthogonalLoop=1;jettySize=auto;html=1;" edge="1" parent="1" source="Fdf8ruKNhAeZIdXmLDlQ-85" target="Fdf8ruKNhAeZIdXmLDlQ-86">
          <mxGeometry relative="1" as="geometry" />
        </mxCell>
        <mxCell id="Fdf8ruKNhAeZIdXmLDlQ-85" value="" style="image;points=[];aspect=fixed;html=1;align=center;shadow=0;dashed=0;image=img/lib/allied_telesis/computer_and_terminals/Personal_Computer.svg;" vertex="1" parent="1">
          <mxGeometry x="310" y="780" width="45.6" height="61.800000000000004" as="geometry" />
        </mxCell>
        <mxCell id="Fdf8ruKNhAeZIdXmLDlQ-88" style="edgeStyle=orthogonalEdgeStyle;rounded=0;orthogonalLoop=1;jettySize=auto;html=1;entryX=0;entryY=1;entryDx=0;entryDy=0;" edge="1" parent="1" source="Fdf8ruKNhAeZIdXmLDlQ-86" target="Fdf8ruKNhAeZIdXmLDlQ-64">
          <mxGeometry relative="1" as="geometry" />
        </mxCell>
        <mxCell id="Fdf8ruKNhAeZIdXmLDlQ-86" value="" style="image;points=[];aspect=fixed;html=1;align=center;shadow=0;dashed=0;image=img/lib/allied_telesis/computer_and_terminals/Personal_Computer.svg;" vertex="1" parent="1">
          <mxGeometry x="380" y="780" width="45.6" height="61.800000000000004" as="geometry" />
        </mxCell>
        <mxCell id="Fdf8ruKNhAeZIdXmLDlQ-89" value="PC" style="text;html=1;align=center;verticalAlign=middle;whiteSpace=wrap;rounded=0;" vertex="1" parent="1">
          <mxGeometry x="302.8" y="841.8" width="60" height="30" as="geometry" />
        </mxCell>
        <mxCell id="Fdf8ruKNhAeZIdXmLDlQ-90" value="PC" style="text;html=1;align=center;verticalAlign=middle;whiteSpace=wrap;rounded=0;" vertex="1" parent="1">
          <mxGeometry x="373" y="842" width="60" height="30" as="geometry" />
        </mxCell>
        <mxCell id="Fdf8ruKNhAeZIdXmLDlQ-100" style="edgeStyle=orthogonalEdgeStyle;rounded=0;orthogonalLoop=1;jettySize=auto;html=1;entryX=0;entryY=0.75;entryDx=0;entryDy=0;" edge="1" parent="1" source="Fdf8ruKNhAeZIdXmLDlQ-91" target="Fdf8ruKNhAeZIdXmLDlQ-65">
          <mxGeometry relative="1" as="geometry" />
        </mxCell>
        <mxCell id="Fdf8ruKNhAeZIdXmLDlQ-112" style="edgeStyle=orthogonalEdgeStyle;rounded=0;orthogonalLoop=1;jettySize=auto;html=1;" edge="1" parent="1" source="Fdf8ruKNhAeZIdXmLDlQ-91" target="Fdf8ruKNhAeZIdXmLDlQ-92">
          <mxGeometry relative="1" as="geometry" />
        </mxCell>
        <mxCell id="Fdf8ruKNhAeZIdXmLDlQ-91" value="" style="image;points=[];aspect=fixed;html=1;align=center;shadow=0;dashed=0;image=img/lib/allied_telesis/computer_and_terminals/Personal_Computer.svg;" vertex="1" parent="1">
          <mxGeometry x="452.79999999999995" y="780.2" width="45.6" height="61.800000000000004" as="geometry" />
        </mxCell>
        <mxCell id="Fdf8ruKNhAeZIdXmLDlQ-101" style="edgeStyle=orthogonalEdgeStyle;rounded=0;orthogonalLoop=1;jettySize=auto;html=1;entryX=0.25;entryY=1;entryDx=0;entryDy=0;" edge="1" parent="1" source="Fdf8ruKNhAeZIdXmLDlQ-92" target="Fdf8ruKNhAeZIdXmLDlQ-65">
          <mxGeometry relative="1" as="geometry" />
        </mxCell>
        <mxCell id="Fdf8ruKNhAeZIdXmLDlQ-113" style="edgeStyle=orthogonalEdgeStyle;rounded=0;orthogonalLoop=1;jettySize=auto;html=1;" edge="1" parent="1" source="Fdf8ruKNhAeZIdXmLDlQ-92" target="Fdf8ruKNhAeZIdXmLDlQ-93">
          <mxGeometry relative="1" as="geometry" />
        </mxCell>
        <mxCell id="Fdf8ruKNhAeZIdXmLDlQ-92" value="" style="image;points=[];aspect=fixed;html=1;align=center;shadow=0;dashed=0;image=img/lib/allied_telesis/computer_and_terminals/Personal_Computer.svg;" vertex="1" parent="1">
          <mxGeometry x="524.4" y="780" width="45.6" height="61.800000000000004" as="geometry" />
        </mxCell>
        <mxCell id="Fdf8ruKNhAeZIdXmLDlQ-93" value="" style="image;points=[];aspect=fixed;html=1;align=center;shadow=0;dashed=0;image=img/lib/allied_telesis/computer_and_terminals/Personal_Computer.svg;" vertex="1" parent="1">
          <mxGeometry x="594.4" y="780.2" width="45.6" height="61.800000000000004" as="geometry" />
        </mxCell>
        <mxCell id="Fdf8ruKNhAeZIdXmLDlQ-94" value="PC" style="text;html=1;align=center;verticalAlign=middle;whiteSpace=wrap;rounded=0;" vertex="1" parent="1">
          <mxGeometry x="446" y="842" width="60" height="30" as="geometry" />
        </mxCell>
        <mxCell id="Fdf8ruKNhAeZIdXmLDlQ-95" value="PC" style="text;html=1;align=center;verticalAlign=middle;whiteSpace=wrap;rounded=0;" vertex="1" parent="1">
          <mxGeometry x="517" y="842" width="60" height="30" as="geometry" />
        </mxCell>
        <mxCell id="Fdf8ruKNhAeZIdXmLDlQ-96" value="PC" style="text;html=1;align=center;verticalAlign=middle;whiteSpace=wrap;rounded=0;" vertex="1" parent="1">
          <mxGeometry x="587" y="842" width="60" height="30" as="geometry" />
        </mxCell>
        <mxCell id="Fdf8ruKNhAeZIdXmLDlQ-99" value="DMZ ZONE" style="text;html=1;align=center;verticalAlign=middle;whiteSpace=wrap;rounded=0;fillColor=#f8cecc;strokeColor=#b85450;" vertex="1" parent="1">
          <mxGeometry x="600" y="220" width="130" height="60" as="geometry" />
        </mxCell>
        <mxCell id="Fdf8ruKNhAeZIdXmLDlQ-102" style="edgeStyle=orthogonalEdgeStyle;rounded=0;orthogonalLoop=1;jettySize=auto;html=1;entryX=0.625;entryY=0.975;entryDx=0;entryDy=0;entryPerimeter=0;" edge="1" parent="1" source="Fdf8ruKNhAeZIdXmLDlQ-93" target="Fdf8ruKNhAeZIdXmLDlQ-65">
          <mxGeometry relative="1" as="geometry" />
        </mxCell>
        <mxCell id="Fdf8ruKNhAeZIdXmLDlQ-103" value="" style="sketch=0;points=[[0.015,0.015,0],[0.985,0.015,0],[0.985,0.985,0],[0.015,0.985,0],[0.25,0,0],[0.5,0,0],[0.75,0,0],[1,0.25,0],[1,0.5,0],[1,0.75,0],[0.75,1,0],[0.5,1,0],[0.25,1,0],[0,0.75,0],[0,0.5,0],[0,0.25,0]];verticalLabelPosition=bottom;html=1;verticalAlign=top;aspect=fixed;align=center;pointerEvents=1;shape=mxgraph.cisco19.rect;prIcon=ips_ids;fillColor=#FAFAFA;strokeColor=#005073;" vertex="1" parent="1">
          <mxGeometry x="648" y="700" width="64" height="50" as="geometry" />
        </mxCell>
        <mxCell id="Fdf8ruKNhAeZIdXmLDlQ-105" style="edgeStyle=orthogonalEdgeStyle;rounded=0;orthogonalLoop=1;jettySize=auto;html=1;entryX=0.5;entryY=0;entryDx=0;entryDy=0;entryPerimeter=0;" edge="1" parent="1" source="Fdf8ruKNhAeZIdXmLDlQ-66" target="Fdf8ruKNhAeZIdXmLDlQ-103">
          <mxGeometry relative="1" as="geometry" />
        </mxCell>
        <mxCell id="Fdf8ruKNhAeZIdXmLDlQ-114" style="edgeStyle=orthogonalEdgeStyle;rounded=0;orthogonalLoop=1;jettySize=auto;html=1;" edge="1" parent="1" source="Fdf8ruKNhAeZIdXmLDlQ-106" target="Fdf8ruKNhAeZIdXmLDlQ-108">
          <mxGeometry relative="1" as="geometry" />
        </mxCell>
        <mxCell id="Fdf8ruKNhAeZIdXmLDlQ-119" style="edgeStyle=orthogonalEdgeStyle;rounded=0;orthogonalLoop=1;jettySize=auto;html=1;" edge="1" parent="1" source="Fdf8ruKNhAeZIdXmLDlQ-106" target="Fdf8ruKNhAeZIdXmLDlQ-107">
          <mxGeometry relative="1" as="geometry" />
        </mxCell>
        <mxCell id="Fdf8ruKNhAeZIdXmLDlQ-106" value="" style="image;points=[];aspect=fixed;html=1;align=center;shadow=0;dashed=0;image=img/lib/allied_telesis/computer_and_terminals/Personal_Computer.svg;" vertex="1" parent="1">
          <mxGeometry x="664.4" y="854" width="45.6" height="61.800000000000004" as="geometry" />
        </mxCell>
        <mxCell id="Fdf8ruKNhAeZIdXmLDlQ-107" value="" style="verticalLabelPosition=bottom;html=1;verticalAlign=top;strokeWidth=1;align=center;outlineConnect=0;dashed=0;outlineConnect=0;shape=mxgraph.aws3d.dataServer;strokeColor=#5E5E5E;aspect=fixed;" vertex="1" parent="1">
          <mxGeometry x="657" y="940" width="123" height="106" as="geometry" />
        </mxCell>
        <mxCell id="Fdf8ruKNhAeZIdXmLDlQ-120" style="edgeStyle=orthogonalEdgeStyle;rounded=0;orthogonalLoop=1;jettySize=auto;html=1;" edge="1" parent="1" source="Fdf8ruKNhAeZIdXmLDlQ-108" target="Fdf8ruKNhAeZIdXmLDlQ-107">
          <mxGeometry relative="1" as="geometry" />
        </mxCell>
        <mxCell id="Fdf8ruKNhAeZIdXmLDlQ-108" value="" style="image;points=[];aspect=fixed;html=1;align=center;shadow=0;dashed=0;image=img/lib/allied_telesis/computer_and_terminals/Personal_Computer.svg;" vertex="1" parent="1">
          <mxGeometry x="734.4" y="854" width="45.6" height="61.800000000000004" as="geometry" />
        </mxCell>
        <mxCell id="Fdf8ruKNhAeZIdXmLDlQ-109" style="edgeStyle=orthogonalEdgeStyle;rounded=0;orthogonalLoop=1;jettySize=auto;html=1;entryX=0.285;entryY=-0.032;entryDx=0;entryDy=0;entryPerimeter=0;" edge="1" parent="1" source="Fdf8ruKNhAeZIdXmLDlQ-71" target="Fdf8ruKNhAeZIdXmLDlQ-73">
          <mxGeometry relative="1" as="geometry" />
        </mxCell>
        <mxCell id="Fdf8ruKNhAeZIdXmLDlQ-110" style="edgeStyle=orthogonalEdgeStyle;rounded=0;orthogonalLoop=1;jettySize=auto;html=1;entryX=0.241;entryY=-0.078;entryDx=0;entryDy=0;entryPerimeter=0;" edge="1" parent="1" source="Fdf8ruKNhAeZIdXmLDlQ-73" target="Fdf8ruKNhAeZIdXmLDlQ-72">
          <mxGeometry relative="1" as="geometry" />
        </mxCell>
        <mxCell id="Fdf8ruKNhAeZIdXmLDlQ-115" style="edgeStyle=orthogonalEdgeStyle;rounded=0;orthogonalLoop=1;jettySize=auto;html=1;entryX=0.015;entryY=0.985;entryDx=0;entryDy=0;entryPerimeter=0;" edge="1" parent="1" source="Fdf8ruKNhAeZIdXmLDlQ-106" target="Fdf8ruKNhAeZIdXmLDlQ-103">
          <mxGeometry relative="1" as="geometry" />
        </mxCell>
        <mxCell id="Fdf8ruKNhAeZIdXmLDlQ-116" style="edgeStyle=orthogonalEdgeStyle;rounded=0;orthogonalLoop=1;jettySize=auto;html=1;entryX=1;entryY=0.75;entryDx=0;entryDy=0;entryPerimeter=0;" edge="1" parent="1" source="Fdf8ruKNhAeZIdXmLDlQ-108" target="Fdf8ruKNhAeZIdXmLDlQ-103">
          <mxGeometry relative="1" as="geometry" />
        </mxCell>
        <mxCell id="Fdf8ruKNhAeZIdXmLDlQ-121" value="Admin&lt;div&gt;PC&lt;/div&gt;" style="text;html=1;align=center;verticalAlign=middle;whiteSpace=wrap;rounded=0;" vertex="1" parent="1">
          <mxGeometry x="620" y="870" width="60" height="30" as="geometry" />
        </mxCell>
        <mxCell id="Fdf8ruKNhAeZIdXmLDlQ-122" value="Admin&lt;div&gt;PC&lt;/div&gt;" style="text;html=1;align=center;verticalAlign=middle;whiteSpace=wrap;rounded=0;" vertex="1" parent="1">
          <mxGeometry x="770" y="869.9" width="60" height="30" as="geometry" />
        </mxCell>
        <mxCell id="Fdf8ruKNhAeZIdXmLDlQ-123" value="Data Server" style="text;html=1;align=center;verticalAlign=middle;whiteSpace=wrap;rounded=0;" vertex="1" parent="1">
          <mxGeometry x="689" y="1050" width="60" height="30" as="geometry" />
        </mxCell>
        <mxCell id="Fdf8ruKNhAeZIdXmLDlQ-124" value="IPS" style="text;html=1;align=center;verticalAlign=middle;whiteSpace=wrap;rounded=0;" vertex="1" parent="1">
          <mxGeometry x="652" y="750" width="60" height="30" as="geometry" />
        </mxCell>
        <mxCell id="Fdf8ruKNhAeZIdXmLDlQ-125" value="Firewall" style="text;html=1;align=center;verticalAlign=middle;whiteSpace=wrap;rounded=0;" vertex="1" parent="1">
          <mxGeometry x="290" y="670" width="60" height="30" as="geometry" />
        </mxCell>
        <mxCell id="Fdf8ruKNhAeZIdXmLDlQ-126" value="Firewall" style="text;html=1;align=center;verticalAlign=middle;whiteSpace=wrap;rounded=0;" vertex="1" parent="1">
          <mxGeometry x="410" y="670" width="60" height="30" as="geometry" />
        </mxCell>
        <mxCell id="Fdf8ruKNhAeZIdXmLDlQ-127" value="Firewall" style="text;html=1;align=center;verticalAlign=middle;whiteSpace=wrap;rounded=0;" vertex="1" parent="1">
          <mxGeometry x="700" y="615" width="60" height="30" as="geometry" />
        </mxCell>
        <mxCell id="Fdf8ruKNhAeZIdXmLDlQ-128" value="Firewall" style="text;html=1;align=center;verticalAlign=middle;whiteSpace=wrap;rounded=0;" vertex="1" parent="1">
          <mxGeometry x="580" y="615" width="60" height="30" as="geometry" />
        </mxCell>
      </root>
    </mxGraphModel>
  </diagram>
</mxfile>
